<?xml version="1.0" encoding="UTF-8"?>
<svg id="uuid-6e561f24-0009-4c58-86b9-d7480399e8b1" data-name="main" xmlns="http://www.w3.org/2000/svg" xmlns:xlink="http://www.w3.org/1999/xlink" viewBox="0 0 1280 380">
  <defs>
    <style>
      .uuid-7b000013-30ed-4670-b887-72d5ab784cf4 {
        clip-path: url(#uuid-6437cd7f-7871-44eb-acdd-73a58f42bb06);
      }

      .uuid-a6510cf9-9635-4a54-83a9-5ddfa54d1924 {
        clip-path: url(#uuid-c8f10239-2ce8-4a41-b20f-a2887a0927cb);
      }

      .uuid-35b7a643-0e78-4c1f-b105-0daf75c445a8, .uuid-0525aa57-d69f-4a5d-86f5-f8885b7d255c, .uuid-ed806cfe-6f51-48ef-a58d-8f1138b18734, .uuid-069a4c92-8723-4849-8ce9-8d8ec2b59610, .uuid-dc934618-2ee2-4d19-a2c7-5d03b8f84d55, .uuid-dc688753-c2b8-4845-9ff9-314a60312212, .uuid-fd71057d-fa41-43bf-8dea-57f5681e964a {
        stroke-width: 0px;
      }

      .uuid-d725e3ee-cdbe-487d-861f-440532bae3c3 {
        clip-path: url(#uuid-53bb1306-feb6-4363-8941-8c7af797b0f5);
      }

      .uuid-f147011d-69f9-439e-874a-22f4c4f37d09 {
        clip-path: url(#uuid-cef8035d-9ece-458a-af5c-ea19ca449a9a);
      }

      .uuid-0525aa57-d69f-4a5d-86f5-f8885b7d255c {
        fill: none;
      }

      .uuid-ed806cfe-6f51-48ef-a58d-8f1138b18734 {
        fill: #646464;
      }

      .uuid-3f1f0f7d-3e6c-4af5-9d39-b21b1ed75f1c {
        clip-path: url(#uuid-434084d4-66ea-4515-a57c-872be162a8bb);
      }

      .uuid-95800667-1ce3-4e69-8f03-25d66f574bfa {
        clip-path: url(#uuid-a2c79951-4f97-4c14-be9b-2b2706af8961);
      }

      .uuid-069a4c92-8723-4849-8ce9-8d8ec2b59610 {
        fill: #fff;
      }

      .uuid-dc934618-2ee2-4d19-a2c7-5d03b8f84d55 {
        fill: url(#uuid-4c9e69b8-9fd5-4014-9b86-2cb1f1833d67);
      }

      .uuid-dc688753-c2b8-4845-9ff9-314a60312212 {
        fill: #2e597d;
      }

      .uuid-fd71057d-fa41-43bf-8dea-57f5681e964a {
        fill: url(#uuid-96c2b6e7-d5c1-4fe7-bfc4-4234454173c3);
      }
    </style>
    <clipPath id="uuid-cef8035d-9ece-458a-af5c-ea19ca449a9a">
      <rect class="uuid-0525aa57-d69f-4a5d-86f5-f8885b7d255c" x="83" y="4" width="286.15" height="372"/>
    </clipPath>
    <clipPath id="uuid-53bb1306-feb6-4363-8941-8c7af797b0f5">
      <rect class="uuid-0525aa57-d69f-4a5d-86f5-f8885b7d255c" x="83" y="4" width="286.15" height="372"/>
    </clipPath>
    <clipPath id="uuid-6437cd7f-7871-44eb-acdd-73a58f42bb06">
      <rect class="uuid-0525aa57-d69f-4a5d-86f5-f8885b7d255c" x="83" y="4" width="286.15" height="372"/>
    </clipPath>
    <clipPath id="uuid-434084d4-66ea-4515-a57c-872be162a8bb">
      <path class="uuid-0525aa57-d69f-4a5d-86f5-f8885b7d255c" d="m205.35,116.62c-17.55,3.07-20.73,9.52-20.73,21.38v15.65h41.47v5.22h-57.03c-12.06,0-22.61,7.2-25.91,20.86-3.81,15.65-3.98,25.39,0,41.73,2.95,12.16,9.97,20.86,22.02,20.86h14.25v-18.77c0-13.56,11.86-25.56,25.93-25.56h41.45c11.53,0,20.73-9.4,20.73-20.87v-39.12c0-11.13-9.48-19.52-20.73-21.38-6.92-1.14-14.08-1.67-20.98-1.67-7.32,0-14.34.59-20.48,1.67"/>
    </clipPath>
    <linearGradient id="uuid-96c2b6e7-d5c1-4fe7-bfc4-4234454173c3" data-name="未命名的渐变 4" x1=".22" y1="-132.94" x2=".8" y2="-132.94" gradientTransform="translate(29775.9 292.51) rotate(-90) scale(222.45)" gradientUnits="userSpaceOnUse">
      <stop offset="0" stop-color="#366a96"/>
      <stop offset="1" stop-color="#3679b0"/>
    </linearGradient>
    <clipPath id="uuid-a2c79951-4f97-4c14-be9b-2b2706af8961">
      <path class="uuid-0525aa57-d69f-4a5d-86f5-f8885b7d255c" d="m272.73,158.87v18.25c0,14.15-12.12,26.08-25.92,26.08h-41.45c-11.35,0-20.73,9.61-20.73,20.87v39.12c0,11.13,9.77,17.66,20.73,20.86,13.13,3.82,25.74,4.52,41.45,0,10.44-2.99,20.73-9,20.73-20.86v-15.65h-41.45v-5.22h62.19c12.06,0,16.54-8.36,20.73-20.86,4.33-12.87,4.15-25.22,0-41.73-2.98-11.89-8.66-20.86-20.73-20.86h-15.54Z"/>
    </clipPath>
    <linearGradient id="uuid-4c9e69b8-9fd5-4014-9b86-2cb1f1833d67" data-name="未命名的渐变 2" x1=".2" y1="-131.41" x2=".77" y2="-131.41" gradientTransform="translate(400.46 -57641.58) rotate(-180) scale(440.34)" gradientUnits="userSpaceOnUse">
      <stop offset="0" stop-color="#ffc836"/>
      <stop offset="1" stop-color="#ffe873"/>
    </linearGradient>
    <clipPath id="uuid-c8f10239-2ce8-4a41-b20f-a2887a0927cb">
      <rect class="uuid-0525aa57-d69f-4a5d-86f5-f8885b7d255c" x="83" y="4" width="286.15" height="372"/>
    </clipPath>
    <clipPath id="uuid-b5c8d7b2-fd89-49d1-af1e-53121c3d4fc2">
      <rect class="uuid-0525aa57-d69f-4a5d-86f5-f8885b7d255c" x="83" y="4" width="286.15" height="372"/>
    </clipPath>
    <clipPath id="uuid-2133e0fb-cb74-44cf-a8b5-5c3e9a72fac9">
      <rect class="uuid-0525aa57-d69f-4a5d-86f5-f8885b7d255c" x="308.64" y="307.34" width="2.93" height="2.86"/>
    </clipPath>
    <clipPath id="uuid-a66f003e-3f26-477c-afa1-9c6e16f800a4">
      <rect class="uuid-0525aa57-d69f-4a5d-86f5-f8885b7d255c" x="322.56" y="321.46" width="2.93" height="2.86"/>
    </clipPath>
    <clipPath id="uuid-120bfa8d-1d34-4489-9e57-c82ade26acf9">
      <rect class="uuid-0525aa57-d69f-4a5d-86f5-f8885b7d255c" x="363.72" y="338.15" width="2.93" height="2.86"/>
    </clipPath>
    <clipPath id="uuid-4f02cc10-2333-46ba-98fb-4a04ed47aaf7">
      <rect class="uuid-0525aa57-d69f-4a5d-86f5-f8885b7d255c" x="328.12" y="334.78" width="2.93" height="2.86"/>
    </clipPath>
    <clipPath id="uuid-809e7cb3-8222-4de3-9c5f-a0418cf663ab">
      <rect class="uuid-0525aa57-d69f-4a5d-86f5-f8885b7d255c" x="325.93" y="269.77" width="2.93" height="2.86"/>
    </clipPath>
    <clipPath id="uuid-e608f6a6-d681-4270-bffb-60778c46afd6">
      <rect class="uuid-0525aa57-d69f-4a5d-86f5-f8885b7d255c" x="338.73" y="282.92" width="1.99" height="2.29"/>
    </clipPath>
    <clipPath id="uuid-be4ba87b-217e-4674-a92f-91b924331c59">
      <rect class="uuid-0525aa57-d69f-4a5d-86f5-f8885b7d255c" x="355.37" y="265.6" width="2.93" height="2.86"/>
    </clipPath>
  </defs>
  <g id="uuid-a7ad9d32-c717-4736-9f8e-79bc5c1f15f7" data-name="background">
    <rect class="uuid-069a4c92-8723-4849-8ce9-8d8ec2b59610" width="1280" height="380"/>
  </g>
  <g>
    <path class="uuid-35b7a643-0e78-4c1f-b105-0daf75c445a8" d="m435.37,244.65h-22.56v-109.86h22.56v54.05c2.2-3.22,4.3-6.2,6.3-8.94,2-2.73,3.71-4.98,5.13-6.74l30.47-38.38h26.59l-40.28,50.68,48.05,59.18h-29.22l-33.25-41.09-13.77,17.36v23.73Z"/>
    <path class="uuid-35b7a643-0e78-4c1f-b105-0daf75c445a8" d="m557.2,244.65h-22.56v-90.16h-32.37v-19.7h87.38v19.7h-32.45v90.16Z"/>
    <path class="uuid-35b7a643-0e78-4c1f-b105-0daf75c445a8" d="m642.85,246.85c-8.35,0-16.05-1.43-23.11-4.29-7.06-2.86-13.18-6.86-18.38-12.01-5.2-5.15-9.23-11.19-12.08-18.13-2.86-6.93-4.29-14.5-4.29-22.71s1.43-15.78,4.29-22.74c2.86-6.96,6.88-13.01,12.08-18.16,5.2-5.15,11.33-9.14,18.38-11.98,7.05-2.83,14.76-4.25,23.11-4.25s16.04,1.43,23.07,4.28,13.12,6.85,18.27,11.98c5.15,5.13,9.17,11.16,12.05,18.09,2.88,6.93,4.32,14.53,4.32,22.78s-1.43,15.78-4.29,22.74c-2.86,6.96-6.87,13-12.05,18.13-5.18,5.13-11.28,9.12-18.31,11.97-7.03,2.86-14.72,4.29-23.07,4.29Zm0-19.7c4.93,0,9.51-.95,13.73-2.86s7.9-4.55,11.02-7.95c3.12-3.39,5.55-7.35,7.29-11.87,1.73-4.52,2.6-9.44,2.6-14.76s-.87-10.25-2.6-14.79-4.16-8.51-7.29-11.9c-3.12-3.39-6.8-6.03-11.02-7.91-4.22-1.88-8.8-2.82-13.73-2.82s-9.58.94-13.81,2.82c-4.22,1.88-7.91,4.52-11.06,7.91-3.15,3.39-5.59,7.36-7.32,11.9-1.73,4.54-2.6,9.47-2.6,14.79s.87,10.25,2.6,14.79c1.73,4.54,4.17,8.51,7.32,11.9,3.15,3.39,6.83,6.03,11.06,7.91,4.22,1.88,8.83,2.82,13.81,2.82Z"/>
    <path class="uuid-35b7a643-0e78-4c1f-b105-0daf75c445a8" d="m757.43,246.85c-8.35,0-16.05-1.43-23.11-4.29-7.06-2.86-13.18-6.86-18.38-12.01-5.2-5.15-9.23-11.19-12.08-18.13-2.86-6.93-4.29-14.5-4.29-22.71s1.43-15.78,4.29-22.74c2.86-6.96,6.88-13.01,12.08-18.16,5.2-5.15,11.33-9.14,18.38-11.98,7.05-2.83,14.76-4.25,23.11-4.25s16.04,1.43,23.07,4.28,13.12,6.85,18.27,11.98c5.15,5.13,9.17,11.16,12.05,18.09,2.88,6.93,4.32,14.53,4.32,22.78s-1.43,15.78-4.29,22.74c-2.86,6.96-6.87,13-12.05,18.13-5.18,5.13-11.28,9.12-18.31,11.97-7.03,2.86-14.72,4.29-23.07,4.29Zm0-19.7c4.93,0,9.51-.95,13.73-2.86s7.9-4.55,11.02-7.95c3.12-3.39,5.55-7.35,7.29-11.87,1.73-4.52,2.6-9.44,2.6-14.76s-.87-10.25-2.6-14.79-4.16-8.51-7.29-11.9c-3.12-3.39-6.8-6.03-11.02-7.91-4.22-1.88-8.8-2.82-13.73-2.82s-9.58.94-13.81,2.82c-4.22,1.88-7.91,4.52-11.06,7.91-3.15,3.39-5.59,7.36-7.32,11.9-1.73,4.54-2.6,9.47-2.6,14.79s.87,10.25,2.6,14.79c1.73,4.54,4.17,8.51,7.32,11.9,3.15,3.39,6.83,6.03,11.06,7.91,4.22,1.88,8.83,2.82,13.81,2.82Z"/>
    <path class="uuid-35b7a643-0e78-4c1f-b105-0daf75c445a8" d="m889.73,244.65h-71.78v-109.86h22.56v90.16h49.22v19.7Z"/>
    <path class="uuid-35b7a643-0e78-4c1f-b105-0daf75c445a8" d="m890.49,244.65v-109.86h40.65c11.82,0,20.98,2.5,27.5,7.51,6.52,5.01,9.78,12.02,9.78,21.06,0,5.52-1.29,10.39-3.88,14.61-2.59,4.22-6.08,7.43-10.47,9.63,6.25,1.86,11.12,5.04,14.61,9.56,3.49,4.52,5.24,10.05,5.24,16.59s-1.53,11.68-4.58,16.3c-3.05,4.62-7.35,8.2-12.89,10.77-5.54,2.56-12.05,3.85-19.52,3.85h-46.44Zm22.56-63.87h16.85c5.03,0,9.01-1.2,11.94-3.59,2.93-2.39,4.39-5.64,4.39-9.74s-1.48-7.17-4.43-9.48c-2.96-2.32-7.04-3.48-12.27-3.48h-16.48v26.29Zm0,44.17h18.24c4,0,7.47-.57,10.4-1.72,2.93-1.15,5.19-2.78,6.77-4.91,1.59-2.12,2.38-4.6,2.38-7.43s-.72-5.25-2.16-7.25c-1.44-2-3.53-3.53-6.26-4.58-2.74-1.05-5.98-1.58-9.74-1.58h-19.63v27.47Z"/>
    <path class="uuid-35b7a643-0e78-4c1f-b105-0daf75c445a8" d="m1030.34,246.85c-8.35,0-16.05-1.43-23.11-4.29-7.06-2.86-13.18-6.86-18.38-12.01-5.2-5.15-9.23-11.19-12.08-18.13-2.86-6.93-4.29-14.5-4.29-22.71s1.43-15.78,4.29-22.74c2.86-6.96,6.88-13.01,12.08-18.16,5.2-5.15,11.33-9.14,18.38-11.98,7.05-2.83,14.76-4.25,23.11-4.25s16.04,1.43,23.07,4.28,13.12,6.85,18.27,11.98c5.15,5.13,9.17,11.16,12.05,18.09,2.88,6.93,4.32,14.53,4.32,22.78s-1.43,15.78-4.29,22.74c-2.86,6.96-6.87,13-12.05,18.13-5.18,5.13-11.28,9.12-18.31,11.97-7.03,2.86-14.72,4.29-23.07,4.29Zm0-19.7c4.93,0,9.51-.95,13.73-2.86s7.9-4.55,11.02-7.95c3.12-3.39,5.55-7.35,7.29-11.87,1.73-4.52,2.6-9.44,2.6-14.76s-.87-10.25-2.6-14.79-4.16-8.51-7.29-11.9c-3.12-3.39-6.8-6.03-11.02-7.91-4.22-1.88-8.8-2.82-13.73-2.82s-9.58.94-13.81,2.82c-4.22,1.88-7.91,4.52-11.06,7.91-3.15,3.39-5.59,7.36-7.32,11.9-1.73,4.54-2.6,9.47-2.6,14.79s.87,10.25,2.6,14.79c1.73,4.54,4.17,8.51,7.32,11.9,3.15,3.39,6.83,6.03,11.06,7.91,4.22,1.88,8.83,2.82,13.81,2.82Z"/>
    <path class="uuid-35b7a643-0e78-4c1f-b105-0daf75c445a8" d="m1191.28,244.65h-28.34l-28.27-39.7-28.34,39.7h-26.73l42.04-56.4-38.75-53.47h28.34l24.98,35.16,24.39-35.16h27.61l-38.89,52.88,41.97,56.98Z"/>
  </g>
  <g id="uuid-4db5b4d1-64dc-4c18-89a4-c49b62d86574" data-name="python-powered">
    <g class="uuid-f147011d-69f9-439e-874a-22f4c4f37d09">
      <g class="uuid-d725e3ee-cdbe-487d-861f-440532bae3c3">
        <path class="uuid-ed806cfe-6f51-48ef-a58d-8f1138b18734" d="m139.74,63.1c0-11.29-3.22-17.09-9.66-17.41-2.56-.12-5.06.29-7.5,1.23-1.94.7-3.25,1.38-3.94,2.08v26.96c4.12,2.59,7.78,3.79,10.97,3.6,6.75-.45,10.13-5.93,10.13-16.46m7.94.47c0,5.74-1.35,10.5-4.05,14.29-3.02,4.29-7.2,6.49-12.54,6.61-4.03.13-8.18-1.13-12.45-3.78v24.5l-6.91-2.46v-54.38c1.13-1.39,2.59-2.59,4.36-3.6,4.11-2.4,9.11-3.63,14.99-3.69l.1.1c5.37-.07,9.52,2.14,12.43,6.61,2.71,4.1,4.07,9.37,4.07,15.8"/>
        <path class="uuid-ed806cfe-6f51-48ef-a58d-8f1138b18734" d="m189.91,79.65c0,7.7-.77,13.02-2.31,15.99-1.55,2.96-4.5,5.33-8.85,7.09-3.53,1.39-7.35,2.15-11.44,2.28l-1.14-4.35c4.17-.57,7.1-1.13,8.8-1.7,3.35-1.13,5.65-2.87,6.91-5.2,1.01-1.9,1.51-5.52,1.51-10.88v-1.8c-4.72,2.15-9.68,3.21-14.85,3.21-3.4,0-6.4-1.07-8.99-3.21-2.9-2.34-4.35-5.3-4.35-8.89v-28.76l6.91-2.37v28.94c0,3.09,1,5.47,2.99,7.14s4.58,2.47,7.75,2.41c3.17-.07,6.56-1.29,10.17-3.69v-33.77h6.91v37.55Z"/>
        <path class="uuid-ed806cfe-6f51-48ef-a58d-8f1138b18734" d="m216.88,84.1c-.82.07-1.58.1-2.28.1-3.91,0-6.95-.93-9.13-2.8-2.17-1.87-3.26-4.45-3.26-7.73v-27.21h-4.73v-4.35h4.73v-11.54l6.9-2.46v14h7.76v4.35h-7.76v27.02c0,2.59.7,4.43,2.09,5.5,1.19.88,3.09,1.39,5.68,1.52v3.6Z"/>
        <path class="uuid-ed806cfe-6f51-48ef-a58d-8f1138b18734" d="m258.71,83.53h-6.91v-26.67c0-2.71-.64-5.05-1.9-7-1.46-2.21-3.48-3.31-6.09-3.31-3.17,0-7.13,1.67-11.88,5.01v31.97h-6.91V19.78l6.91-2.18v29.03c4.41-3.21,9.24-4.82,14.48-4.82,3.66,0,6.62,1.23,8.89,3.69,2.28,2.46,3.41,5.52,3.41,9.18v28.85Z"/>
        <path class="uuid-ed806cfe-6f51-48ef-a58d-8f1138b18734" d="m295.43,62.02c0-4.34-.82-7.92-2.46-10.76-1.95-3.45-4.98-5.28-9.08-5.47-7.57.44-11.35,5.87-11.35,16.27,0,4.77.79,8.75,2.37,11.95,2.03,4.07,5.06,6.08,9.12,6.02,7.6-.06,11.41-6.06,11.41-18.01m7.57.05c0,6.18-1.58,11.32-4.73,15.42-3.47,4.6-8.26,6.9-14.38,6.9s-10.79-2.31-14.2-6.9c-3.09-4.1-4.63-9.24-4.63-15.42,0-5.81,1.67-10.69,5.01-14.66,3.53-4.22,8.17-6.33,13.91-6.33s10.41,2.12,14.01,6.33c3.34,3.98,5.01,8.86,5.01,14.66"/>
        <path class="uuid-ed806cfe-6f51-48ef-a58d-8f1138b18734" d="m342.61,83.53h-6.91v-28.18c0-3.09-.93-5.5-2.79-7.24-1.86-1.73-4.34-2.57-7.43-2.5-3.28.06-6.4,1.13-9.37,3.21v34.71h-6.91v-35.57c3.98-2.89,7.63-4.78,10.98-5.67,3.15-.82,5.93-1.23,8.33-1.23,1.64,0,3.18.16,4.63.48,2.71.63,4.92,1.79,6.62,3.5,1.9,1.89,2.84,4.16,2.84,6.81v31.68Z"/>
      </g>
      <g class="uuid-7b000013-30ed-4670-b887-72d5ab784cf4">
        <path class="uuid-dc688753-c2b8-4845-9ff9-314a60312212" d="m140.32,326.64c0,4.53-1.07,8.29-3.21,11.27-2.39,3.38-5.7,5.13-9.93,5.23-3.18.1-6.47-.9-9.85-2.99v19.33l-5.37-1.94.07-42.92c.9-1.09,2.04-2.04,3.43-2.84,3.23-1.89,7.17-2.86,11.79-2.91l.07.07c4.23-.05,7.49,1.69,9.78,5.23,2.14,3.23,3.21,7.39,3.21,12.46m-6.27-.37c0-8.91-2.56-13.49-7.69-13.73-2.04-.1-4.03.22-5.97.97-1.54.55-2.59,1.09-3.14,1.64v21.27c3.28,2.04,6.2,2.99,8.73,2.84,5.37-.35,8.06-4.68,8.06-12.99m40.73-.82c0,4.88-1.24,8.93-3.73,12.17-2.74,3.63-6.52,5.45-11.35,5.45s-8.51-1.82-11.2-5.45c-2.44-3.23-3.66-7.29-3.66-12.17,0-4.58,1.32-8.43,3.96-11.57,2.79-3.33,6.44-5,10.97-5s8.21,1.67,11.05,5c2.64,3.14,3.96,6.99,3.96,11.57m-5.97,0c0-3.43-.65-6.27-1.94-8.51-1.54-2.74-3.93-4.18-7.17-4.33-5.97.35-8.96,4.63-8.96,12.84h.07c0,3.78.62,6.94,1.87,9.48,1.59,3.23,3.98,4.83,7.17,4.78,5.97-.05,8.96-4.8,8.96-14.26m53.29-15.38l-8.88,31.35-4.48,1.57-8.58-26.05-7.02,24.48-4.48,1.57-10.52-32.32,5-1.79,8.36,25.45,6.64-23.66,5-1.79,8.43,25.45,7.17-25.45,3.36,1.19m29.42,29.33c-2.09,1.34-3.96,2.26-5.6,2.76-1.99.6-4.01.9-6.05.9-3.63,0-6.52-.92-8.66-2.76-3.88-3.28-5.8-7.86-5.75-13.73.05-4.83,1.05-8.81,2.99-11.94,2.34-3.68,5.72-5.52,10.15-5.52,8.26,0,12.47,5.45,12.61,16.35h-20c-.3,4.23.5,7.66,2.39,10.3,1.89,2.59,4.38,3.83,7.46,3.73,2.59-.1,5.65-1,9.18-2.69l1.27,2.61m-5.75-17.09c0-2.64-.55-4.88-1.64-6.72-1.29-2.09-3.06-3.14-5.3-3.14-4.48,0-6.97,3.26-7.46,9.78l14.41.07m32.16-13.29c-.5,1-1.22,2.46-2.16,4.4-1.39-.3-2.41-.45-3.06-.45h-.07c-2.99,0-5.65,1-7.99,2.99v26.42h-5.45v-27.17c2.04-2.29,4.63-3.98,7.76-5.08,2.74-1,5.17-1.49,7.31-1.49,1.19,0,2.41.12,3.66.37m29.71,30.38c-2.09,1.34-3.96,2.26-5.6,2.76-1.99.6-4.01.9-6.05.9-3.63,0-6.52-.92-8.66-2.76-3.88-3.28-5.8-7.86-5.75-13.73.05-4.83,1.05-8.81,2.99-11.94,2.34-3.68,5.72-5.52,10.15-5.52,8.26,0,12.47,5.45,12.61,16.35h-20c-.3,4.23.5,7.66,2.39,10.3,1.89,2.59,4.38,3.83,7.46,3.73,2.59-.1,5.65-1,9.18-2.69l1.27,2.61m-5.75-17.09c0-2.64-.55-4.88-1.64-6.72-1.29-2.09-3.06-3.14-5.3-3.14-4.48,0-6.97,3.26-7.46,9.78l14.41.07m39.77,14.93c-4.88,3.78-10.1,5.7-15.67,5.75-4.13,0-7.39-1.87-9.78-5.6-2.09-3.23-3.14-7.04-3.14-11.42s1.12-8.23,3.36-11.57c2.54-3.73,5.92-5.57,10.15-5.52,3.23,0,6.49.8,9.78,2.39v-19.18l5.23-1.79.07,46.95m-5.3-.6v-21.2c-3.18-1.99-6-2.99-8.43-2.99-3.09,0-5.42,1.62-7.02,4.85-1.29,2.59-1.94,5.6-1.94,9.03s.62,6.15,1.87,8.58c1.54,3.18,3.81,4.78,6.79,4.78,2.79,0,5.7-1.02,8.73-3.06"/>
      </g>
      <g class="uuid-3f1f0f7d-3e6c-4af5-9d39-b21b1ed75f1c">
        <rect class="uuid-fd71057d-fa41-43bf-8dea-57f5681e964a" x="139.17" y="113.95" width="128.38" height="129.37" transform="translate(23.11 380.57) rotate(-89.54)"/>
      </g>
      <g class="uuid-95800667-1ce3-4e69-8f03-25d66f574bfa">
        <rect class="uuid-dc934618-2ee2-4d19-a2c7-5d03b8f84d55" x="184.62" y="158.87" width="128.72" height="129.69"/>
      </g>
      <g class="uuid-a6510cf9-9635-4a54-83a9-5ddfa54d1924">
        <path class="uuid-069a4c92-8723-4849-8ce9-8d8ec2b59610" d="m194.99,135.41c0-4.33,3.47-7.83,7.77-7.83s7.77,3.5,7.77,7.83-3.49,7.82-7.77,7.82-7.77-3.5-7.77-7.82"/>
        <path class="uuid-069a4c92-8723-4849-8ce9-8d8ec2b59610" d="m241.63,265.78c0-4.32,3.49-7.82,7.77-7.82s7.77,3.5,7.77,7.82-3.47,7.83-7.77,7.83-7.77-3.5-7.77-7.83"/>
      </g>
    </g>
  </g>
</svg>