<?xml version="1.0" encoding="UTF-8"?>
<svg id="uuid-a7ffc2b9-66aa-4abc-8035-684b7e467998" data-name="main" xmlns="http://www.w3.org/2000/svg" xmlns:xlink="http://www.w3.org/1999/xlink" viewBox="0 0 1280 380">
  <defs>
    <style>
      .uuid-b1e635e1-c2dc-462d-915c-c94668e1aa18 {
        clip-path: url(#uuid-d4584c7c-6fa4-4bce-b615-db7913699857);
      }

      .uuid-148a80a6-6818-456c-9a9d-549ccd01df7d {
        clip-path: url(#uuid-ddb228da-3f63-4dd4-bb59-25a24518c47d);
      }

      .uuid-09b0716e-f0cc-4267-9884-3695df695681, .uuid-6e86f4d5-c8f4-4cbc-b548-a8a6cc9f9c96, .uuid-13853d5d-11df-478a-a236-cd67fcaad6e2, .uuid-b3d3f349-0f83-4a14-8994-46e90bb4bccb, .uuid-5877c978-63b2-4087-9bb5-390fa6b83ed2, .uuid-ef695c38-84e6-44e9-823e-c8ad1a6013f8, .uuid-3e975d75-0e36-4584-a4c2-a49f2b0296e9 {
        stroke-width: 0px;
      }

      .uuid-a13292a1-409a-4a66-82a8-4452edd06254 {
        letter-spacing: -.1em;
      }

      .uuid-6e86f4d5-c8f4-4cbc-b548-a8a6cc9f9c96 {
        fill: none;
      }

      .uuid-13853d5d-11df-478a-a236-cd67fcaad6e2 {
        fill: #646464;
      }

      .uuid-9d6e2f80-a4f0-4b2b-8bd5-091de3556f73 {
        letter-spacing: -.07em;
      }

      .uuid-391496c8-1567-440a-b4d1-7b4d74461f7a {
        clip-path: url(#uuid-3adad75b-2210-494e-a2fd-648bc81dc504);
      }

      .uuid-b3d3f349-0f83-4a14-8994-46e90bb4bccb {
        fill: #fff;
      }

      .uuid-762f8e98-20ce-4d99-b6cc-91a5edde91be {
        letter-spacing: -.07em;
      }

      .uuid-01f26f83-df61-4e03-856f-5f7da15e91a2 {
        font-family: KumbhSans-Bold, 'Kumbh Sans';
        font-size: 150px;
        font-weight: 700;
      }

      .uuid-e260d9fb-1a5d-4bb6-8503-efbf99b91863 {
        clip-path: url(#uuid-4c0b0f5e-4d1a-48f1-9d4d-79328d831bc0);
      }

      .uuid-5877c978-63b2-4087-9bb5-390fa6b83ed2 {
        fill: #2e597d;
      }

      .uuid-c1b113dc-e22b-415a-ae3a-1ff620c0e997 {
        clip-path: url(#uuid-a8c7c2af-5e1a-425c-bd3c-7acc1d347036);
      }

      .uuid-ef695c38-84e6-44e9-823e-c8ad1a6013f8 {
        fill: url(#uuid-cdbae512-bf07-4b95-8eee-0fe96d09825b);
      }

      .uuid-3e975d75-0e36-4584-a4c2-a49f2b0296e9 {
        fill: url(#uuid-82106606-ae6c-4601-b948-871325198a18);
      }

      .uuid-07b063a4-f275-46a1-ad47-99f5bca6fe3f {
        clip-path: url(#uuid-0cc6c291-d994-44f7-b1cf-bc89ba1d68e0);
      }
    </style>
    <clipPath id="uuid-ddb228da-3f63-4dd4-bb59-25a24518c47d">
      <rect class="uuid-6e86f4d5-c8f4-4cbc-b548-a8a6cc9f9c96" x="83" y="4" width="286.15" height="372"/>
    </clipPath>
    <clipPath id="uuid-a8c7c2af-5e1a-425c-bd3c-7acc1d347036">
      <rect class="uuid-6e86f4d5-c8f4-4cbc-b548-a8a6cc9f9c96" x="83" y="4" width="286.15" height="372"/>
    </clipPath>
    <clipPath id="uuid-0cc6c291-d994-44f7-b1cf-bc89ba1d68e0">
      <rect class="uuid-6e86f4d5-c8f4-4cbc-b548-a8a6cc9f9c96" x="83" y="4" width="286.15" height="372"/>
    </clipPath>
    <clipPath id="uuid-d4584c7c-6fa4-4bce-b615-db7913699857">
      <path class="uuid-6e86f4d5-c8f4-4cbc-b548-a8a6cc9f9c96" d="m205.35,116.62c-17.55,3.07-20.73,9.52-20.73,21.38v15.65h41.47v5.22h-57.03c-12.06,0-22.61,7.2-25.91,20.86-3.81,15.65-3.98,25.39,0,41.73,2.95,12.16,9.97,20.86,22.02,20.86h14.25v-18.77c0-13.56,11.86-25.56,25.93-25.56h41.45c11.53,0,20.73-9.4,20.73-20.87v-39.12c0-11.13-9.48-19.52-20.73-21.38-6.92-1.14-14.08-1.67-20.98-1.67-7.32,0-14.34.59-20.48,1.67"/>
    </clipPath>
    <linearGradient id="uuid-cdbae512-bf07-4b95-8eee-0fe96d09825b" data-name="未命名的渐变 5" x1=".22" y1="-132.94" x2=".8" y2="-132.94" gradientTransform="translate(29775.9 292.51) rotate(-90) scale(222.45)" gradientUnits="userSpaceOnUse">
      <stop offset="0" stop-color="#366a96"/>
      <stop offset="1" stop-color="#3679b0"/>
    </linearGradient>
    <clipPath id="uuid-3adad75b-2210-494e-a2fd-648bc81dc504">
      <path class="uuid-6e86f4d5-c8f4-4cbc-b548-a8a6cc9f9c96" d="m272.73,158.87v18.25c0,14.15-12.12,26.08-25.92,26.08h-41.45c-11.35,0-20.73,9.61-20.73,20.87v39.12c0,11.13,9.77,17.66,20.73,20.86,13.13,3.82,25.74,4.52,41.45,0,10.44-2.99,20.73-9,20.73-20.86v-15.65h-41.45v-5.22h62.19c12.06,0,16.54-8.36,20.73-20.86,4.33-12.87,4.15-25.22,0-41.73-2.98-11.89-8.66-20.86-20.73-20.86h-15.54Z"/>
    </clipPath>
    <linearGradient id="uuid-82106606-ae6c-4601-b948-871325198a18" data-name="未命名的渐变 2" x1=".2" y1="-131.41" x2=".77" y2="-131.41" gradientTransform="translate(400.46 -57641.58) rotate(-180) scale(440.34)" gradientUnits="userSpaceOnUse">
      <stop offset="0" stop-color="#ffc836"/>
      <stop offset="1" stop-color="#ffe873"/>
    </linearGradient>
    <clipPath id="uuid-4c0b0f5e-4d1a-48f1-9d4d-79328d831bc0">
      <rect class="uuid-6e86f4d5-c8f4-4cbc-b548-a8a6cc9f9c96" x="83" y="4" width="286.15" height="372"/>
    </clipPath>
    <clipPath id="uuid-716161f8-ba02-4ebd-a1da-0ffbbc4d7e9b">
      <rect class="uuid-6e86f4d5-c8f4-4cbc-b548-a8a6cc9f9c96" x="83" y="4" width="286.15" height="372"/>
    </clipPath>
    <clipPath id="uuid-7cb312f1-600b-48fe-bc4e-99973f2a8368">
      <rect class="uuid-6e86f4d5-c8f4-4cbc-b548-a8a6cc9f9c96" x="308.64" y="307.34" width="2.93" height="2.86"/>
    </clipPath>
    <clipPath id="uuid-398a1659-7267-499b-b412-7abc29d8cabb">
      <rect class="uuid-6e86f4d5-c8f4-4cbc-b548-a8a6cc9f9c96" x="322.56" y="321.46" width="2.93" height="2.86"/>
    </clipPath>
    <clipPath id="uuid-fd18e66b-c5e0-4a28-93c4-b6776a7feaf3">
      <rect class="uuid-6e86f4d5-c8f4-4cbc-b548-a8a6cc9f9c96" x="363.72" y="338.15" width="2.93" height="2.86"/>
    </clipPath>
    <clipPath id="uuid-13bb554d-3a56-47bf-aa14-566c4c692dd9">
      <rect class="uuid-6e86f4d5-c8f4-4cbc-b548-a8a6cc9f9c96" x="328.12" y="334.78" width="2.93" height="2.86"/>
    </clipPath>
    <clipPath id="uuid-5455229a-7ae1-462e-a6c2-57db15ef1cb8">
      <rect class="uuid-6e86f4d5-c8f4-4cbc-b548-a8a6cc9f9c96" x="325.93" y="269.77" width="2.93" height="2.86"/>
    </clipPath>
    <clipPath id="uuid-9b7cc341-a70f-44bc-ba80-af75112e705a">
      <rect class="uuid-6e86f4d5-c8f4-4cbc-b548-a8a6cc9f9c96" x="338.73" y="282.92" width="1.99" height="2.29"/>
    </clipPath>
    <clipPath id="uuid-a5b724ac-962d-4264-aa61-70e3465dca5b">
      <rect class="uuid-6e86f4d5-c8f4-4cbc-b548-a8a6cc9f9c96" x="355.37" y="265.6" width="2.93" height="2.86"/>
    </clipPath>
  </defs>
  <g id="uuid-158eef4c-a1af-4ea9-8cda-1417ba3eccac" data-name="background">
    <g>
      <rect class="uuid-b3d3f349-0f83-4a14-8994-46e90bb4bccb" x=".5" y=".5" width="1279" height="379"/>
      <path class="uuid-09b0716e-f0cc-4267-9884-3695df695681" d="m1279,1v378H1V1h1278m1-1H0v380h1280V0h0Z"/>
    </g>
  </g>
  <text class="uuid-01f26f83-df61-4e03-856f-5f7da15e91a2" transform="translate(403.87 244.65)"><tspan class="uuid-762f8e98-20ce-4d99-b6cc-91a5edde91be" x="0" y="0">KTOOLB</tspan><tspan class="uuid-a13292a1-409a-4a66-82a8-4452edd06254" x="563.48" y="0">O</tspan><tspan class="uuid-9d6e2f80-a4f0-4b2b-8bd5-091de3556f73" x="673.67" y="0">X</tspan></text>
  <g id="uuid-8da337b3-5fdd-47ff-a4d2-59880ad902cf" data-name="python-powered">
    <g class="uuid-148a80a6-6818-456c-9a9d-549ccd01df7d">
      <g class="uuid-c1b113dc-e22b-415a-ae3a-1ff620c0e997">
        <path class="uuid-13853d5d-11df-478a-a236-cd67fcaad6e2" d="m139.74,63.1c0-11.29-3.22-17.09-9.66-17.41-2.56-.12-5.06.29-7.5,1.23-1.94.7-3.25,1.38-3.94,2.08v26.96c4.12,2.59,7.78,3.79,10.97,3.6,6.75-.45,10.13-5.93,10.13-16.46m7.94.47c0,5.74-1.35,10.5-4.05,14.29-3.02,4.29-7.2,6.49-12.54,6.61-4.03.13-8.18-1.13-12.45-3.78v24.5l-6.91-2.46v-54.38c1.13-1.39,2.59-2.59,4.36-3.6,4.11-2.4,9.11-3.63,14.99-3.69l.1.1c5.37-.07,9.52,2.14,12.43,6.61,2.71,4.1,4.07,9.37,4.07,15.8"/>
        <path class="uuid-13853d5d-11df-478a-a236-cd67fcaad6e2" d="m189.91,79.65c0,7.7-.77,13.02-2.31,15.99-1.55,2.96-4.5,5.33-8.85,7.09-3.53,1.39-7.35,2.15-11.44,2.28l-1.14-4.35c4.17-.57,7.1-1.13,8.8-1.7,3.35-1.13,5.65-2.87,6.91-5.2,1.01-1.9,1.51-5.52,1.51-10.88v-1.8c-4.72,2.15-9.68,3.21-14.85,3.21-3.4,0-6.4-1.07-8.99-3.21-2.9-2.34-4.35-5.3-4.35-8.89v-28.76l6.91-2.37v28.94c0,3.09,1,5.47,2.99,7.14s4.58,2.47,7.75,2.41c3.17-.07,6.56-1.29,10.17-3.69v-33.77h6.91v37.55Z"/>
        <path class="uuid-13853d5d-11df-478a-a236-cd67fcaad6e2" d="m216.88,84.1c-.82.07-1.58.1-2.28.1-3.91,0-6.95-.93-9.13-2.8-2.17-1.87-3.26-4.45-3.26-7.73v-27.21h-4.73v-4.35h4.73v-11.54l6.9-2.46v14h7.76v4.35h-7.76v27.02c0,2.59.7,4.43,2.09,5.5,1.19.88,3.09,1.39,5.68,1.52v3.6Z"/>
        <path class="uuid-13853d5d-11df-478a-a236-cd67fcaad6e2" d="m258.71,83.53h-6.91v-26.67c0-2.71-.64-5.05-1.9-7-1.46-2.21-3.48-3.31-6.09-3.31-3.17,0-7.13,1.67-11.88,5.01v31.97h-6.91V19.78l6.91-2.18v29.03c4.41-3.21,9.24-4.82,14.48-4.82,3.66,0,6.62,1.23,8.89,3.69,2.28,2.46,3.41,5.52,3.41,9.18v28.85Z"/>
        <path class="uuid-13853d5d-11df-478a-a236-cd67fcaad6e2" d="m295.43,62.02c0-4.34-.82-7.92-2.46-10.76-1.95-3.45-4.98-5.28-9.08-5.47-7.57.44-11.35,5.87-11.35,16.27,0,4.77.79,8.75,2.37,11.95,2.03,4.07,5.06,6.08,9.12,6.02,7.6-.06,11.41-6.06,11.41-18.01m7.57.05c0,6.18-1.58,11.32-4.73,15.42-3.47,4.6-8.26,6.9-14.38,6.9s-10.79-2.31-14.2-6.9c-3.09-4.1-4.63-9.24-4.63-15.42,0-5.81,1.67-10.69,5.01-14.66,3.53-4.22,8.17-6.33,13.91-6.33s10.41,2.12,14.01,6.33c3.34,3.98,5.01,8.86,5.01,14.66"/>
        <path class="uuid-13853d5d-11df-478a-a236-cd67fcaad6e2" d="m342.61,83.53h-6.91v-28.18c0-3.09-.93-5.5-2.79-7.24-1.86-1.73-4.34-2.57-7.43-2.5-3.28.06-6.4,1.13-9.37,3.21v34.71h-6.91v-35.57c3.98-2.89,7.63-4.78,10.98-5.67,3.15-.82,5.93-1.23,8.33-1.23,1.64,0,3.18.16,4.63.48,2.71.63,4.92,1.79,6.62,3.5,1.9,1.89,2.84,4.16,2.84,6.81v31.68Z"/>
      </g>
      <g class="uuid-07b063a4-f275-46a1-ad47-99f5bca6fe3f">
        <path class="uuid-5877c978-63b2-4087-9bb5-390fa6b83ed2" d="m140.32,326.64c0,4.53-1.07,8.29-3.21,11.27-2.39,3.38-5.7,5.13-9.93,5.23-3.18.1-6.47-.9-9.85-2.99v19.33l-5.37-1.94.07-42.92c.9-1.09,2.04-2.04,3.43-2.84,3.23-1.89,7.17-2.86,11.79-2.91l.07.07c4.23-.05,7.49,1.69,9.78,5.23,2.14,3.23,3.21,7.39,3.21,12.46m-6.27-.37c0-8.91-2.56-13.49-7.69-13.73-2.04-.1-4.03.22-5.97.97-1.54.55-2.59,1.09-3.14,1.64v21.27c3.28,2.04,6.2,2.99,8.73,2.84,5.37-.35,8.06-4.68,8.06-12.99m40.73-.82c0,4.88-1.24,8.93-3.73,12.17-2.74,3.63-6.52,5.45-11.35,5.45s-8.51-1.82-11.2-5.45c-2.44-3.23-3.66-7.29-3.66-12.17,0-4.58,1.32-8.43,3.96-11.57,2.79-3.33,6.44-5,10.97-5s8.21,1.67,11.05,5c2.64,3.14,3.96,6.99,3.96,11.57m-5.97,0c0-3.43-.65-6.27-1.94-8.51-1.54-2.74-3.93-4.18-7.17-4.33-5.97.35-8.96,4.63-8.96,12.84h.07c0,3.78.62,6.94,1.87,9.48,1.59,3.23,3.98,4.83,7.17,4.78,5.97-.05,8.96-4.8,8.96-14.26m53.29-15.38l-8.88,31.35-4.48,1.57-8.58-26.05-7.02,24.48-4.48,1.57-10.52-32.32,5-1.79,8.36,25.45,6.64-23.66,5-1.79,8.43,25.45,7.17-25.45,3.36,1.19m29.42,29.33c-2.09,1.34-3.96,2.26-5.6,2.76-1.99.6-4.01.9-6.05.9-3.63,0-6.52-.92-8.66-2.76-3.88-3.28-5.8-7.86-5.75-13.73.05-4.83,1.05-8.81,2.99-11.94,2.34-3.68,5.72-5.52,10.15-5.52,8.26,0,12.47,5.45,12.61,16.35h-20c-.3,4.23.5,7.66,2.39,10.3,1.89,2.59,4.38,3.83,7.46,3.73,2.59-.1,5.65-1,9.18-2.69l1.27,2.61m-5.75-17.09c0-2.64-.55-4.88-1.64-6.72-1.29-2.09-3.06-3.14-5.3-3.14-4.48,0-6.97,3.26-7.46,9.78l14.41.07m32.16-13.29c-.5,1-1.22,2.46-2.16,4.4-1.39-.3-2.41-.45-3.06-.45h-.07c-2.99,0-5.65,1-7.99,2.99v26.42h-5.45v-27.17c2.04-2.29,4.63-3.98,7.76-5.08,2.74-1,5.17-1.49,7.31-1.49,1.19,0,2.41.12,3.66.37m29.71,30.38c-2.09,1.34-3.96,2.26-5.6,2.76-1.99.6-4.01.9-6.05.9-3.63,0-6.52-.92-8.66-2.76-3.88-3.28-5.8-7.86-5.75-13.73.05-4.83,1.05-8.81,2.99-11.94,2.34-3.68,5.72-5.52,10.15-5.52,8.26,0,12.47,5.45,12.61,16.35h-20c-.3,4.23.5,7.66,2.39,10.3,1.89,2.59,4.38,3.83,7.46,3.73,2.59-.1,5.65-1,9.18-2.69l1.27,2.61m-5.75-17.09c0-2.64-.55-4.88-1.64-6.72-1.29-2.09-3.06-3.14-5.3-3.14-4.48,0-6.97,3.26-7.46,9.78l14.41.07m39.77,14.93c-4.88,3.78-10.1,5.7-15.67,5.75-4.13,0-7.39-1.87-9.78-5.6-2.09-3.23-3.14-7.04-3.14-11.42s1.12-8.23,3.36-11.57c2.54-3.73,5.92-5.57,10.15-5.52,3.23,0,6.49.8,9.78,2.39v-19.18l5.23-1.79.07,46.95m-5.3-.6v-21.2c-3.18-1.99-6-2.99-8.43-2.99-3.09,0-5.42,1.62-7.02,4.85-1.29,2.59-1.94,5.6-1.94,9.03s.62,6.15,1.87,8.58c1.54,3.18,3.81,4.78,6.79,4.78,2.79,0,5.7-1.02,8.73-3.06"/>
      </g>
      <g class="uuid-b1e635e1-c2dc-462d-915c-c94668e1aa18">
        <rect class="uuid-ef695c38-84e6-44e9-823e-c8ad1a6013f8" x="139.17" y="113.95" width="128.38" height="129.37" transform="translate(23.11 380.57) rotate(-89.54)"/>
      </g>
      <g class="uuid-391496c8-1567-440a-b4d1-7b4d74461f7a">
        <rect class="uuid-3e975d75-0e36-4584-a4c2-a49f2b0296e9" x="184.62" y="158.87" width="128.72" height="129.69"/>
      </g>
      <g class="uuid-e260d9fb-1a5d-4bb6-8503-efbf99b91863">
        <path class="uuid-b3d3f349-0f83-4a14-8994-46e90bb4bccb" d="m194.99,135.41c0-4.33,3.47-7.83,7.77-7.83s7.77,3.5,7.77,7.83-3.49,7.82-7.77,7.82-7.77-3.5-7.77-7.82"/>
        <path class="uuid-b3d3f349-0f83-4a14-8994-46e90bb4bccb" d="m241.63,265.78c0-4.32,3.49-7.82,7.77-7.82s7.77,3.5,7.77,7.82-3.47,7.83-7.77,7.83-7.77-3.5-7.77-7.83"/>
      </g>
    </g>
  </g>
</svg>